<svg width="124" height="24" viewBox="0 0 124 24" fill="none" xmlns="http://www.w3.org/2000/svg">
<g clip-path="url(#clip0_181_1434)">
<path d="M21.7155 19.0447C19.5344 22.0474 15.9952 23.9998 12 23.9998C8.00483 23.9998 4.46565 22.0474 2.28455 19.0447L6.65797 16.5956C9.97686 14.737 14.0232 14.737 17.3421 16.5956L21.7155 19.0447Z" fill="#EDA154"/>
<path d="M0.846612 16.4358C0.52106 15.6179 0.282867 14.7558 0.143555 13.8609L9.6432 10.821C11.1762 10.3305 12.8241 10.3305 14.3571 10.821L23.8567 13.8609C23.7174 14.7558 23.4792 15.6179 23.1537 16.4358L13.5443 13.3608C12.54 13.0394 11.4603 13.0394 10.4559 13.3608L0.846612 16.4358Z" fill="#F3B36A"/>
<path d="M23.3876 8.2051C23.6837 9.09406 23.8787 10.0293 23.9587 10.9971L12.8005 9.21175C12.2702 9.1269 11.7298 9.1269 11.1995 9.21175L0.0413818 10.9971C0.121467 10.0293 0.316397 9.09405 0.612509 8.20509L10.7782 6.57857C11.5876 6.44907 12.4124 6.44907 13.2218 6.57857L23.3876 8.2051Z" fill="#F9C682"/>
<path d="M19.543 2.66699C20.4826 3.4273 21.3051 4.32661 21.9792 5.33366H2.02087C2.69499 4.32661 3.5175 3.4273 4.45711 2.66699H19.543Z" fill="#FFDA9A"/>
</g>
<path d="M36 20.6376V3.72483H42.5345C44.2198 3.72483 45.5792 4.19195 46.6126 5.12617C47.646 6.0604 48.1628 7.34899 48.1628 8.99195C48.1628 10.6349 47.654 11.9235 46.6365 12.8577C45.6348 13.7758 44.2754 14.2349 42.5583 14.2349H38.3849V20.6376H36ZM38.3849 12.0121H42.463C43.401 12.0121 44.1721 11.7544 44.7763 11.2389C45.3963 10.7074 45.7064 9.95839 45.7064 8.99195C45.7064 7.96107 45.3963 7.20403 44.7763 6.7208C44.1562 6.22148 43.3772 5.97181 42.4391 5.97181H38.3849V12.0121Z" fill="#040506"/>
<path d="M50.434 20.6376V7.83221H52.6519V9.2094H52.6996C52.954 8.71007 53.3196 8.32349 53.7966 8.04966C54.2736 7.75973 54.7744 7.61476 55.2991 7.61476C55.7283 7.61476 56.102 7.6953 56.4199 7.85638L56.0145 10.1758C55.7124 10.047 55.3865 9.98255 55.0367 9.98255C53.5104 9.98255 52.7473 11.0295 52.7473 13.1235V20.6376H50.434Z" fill="#040506"/>
<path d="M66.2085 20.6376V19.2846H66.1608C65.9859 19.6389 65.5725 20.0174 64.9206 20.4201C64.2847 20.8067 63.4579 21 62.4404 21C60.9936 21 59.9045 20.6537 59.1731 19.9611C58.4577 19.2523 58.1 18.3664 58.1 17.3034C58.1 16.2242 58.4179 15.3866 59.0539 14.7906C59.7058 14.1946 60.8028 13.7034 62.345 13.3168C63.7123 12.9624 64.6345 12.6564 65.1114 12.3987C65.6043 12.1409 65.8507 11.7624 65.8507 11.2631C65.8507 10.7638 65.6441 10.353 65.2307 10.0309C64.8173 9.69262 64.1972 9.52349 63.3705 9.52349C61.7965 9.52349 60.8187 10.3289 60.4371 11.9396L58.41 11.2148C58.6326 10.1034 59.1652 9.20134 60.0078 8.50872C60.8505 7.81611 61.9555 7.4698 63.3228 7.4698C64.8014 7.4698 65.9859 7.85638 66.8762 8.62953C67.7825 9.38658 68.2356 10.5705 68.2356 12.1812V20.6376H66.2085ZM62.8697 15.0322C61.8839 15.306 61.2162 15.604 60.8664 15.9262C60.5325 16.2483 60.3656 16.6591 60.3656 17.1584C60.3656 18.3342 61.1287 18.9221 62.655 18.9221C63.7203 18.9221 64.5391 18.6886 65.1114 18.2215C65.6838 17.7544 65.97 17.1825 65.97 16.506V13.6309H65.9223C65.8587 13.7758 65.7633 13.9047 65.6361 14.0174C65.5089 14.1141 65.2148 14.2591 64.7537 14.4523C64.2926 14.6295 63.6646 14.8228 62.8697 15.0322Z" fill="#040506"/>
<path d="M79.8269 15.6362L82.1402 16.2161C81.9176 17.698 81.3373 18.8658 80.3993 19.7195C79.4612 20.5732 78.245 21 76.7505 21C75.0493 21 73.6581 20.396 72.577 19.1879C71.5117 17.9799 70.9791 16.3289 70.9791 14.2349C70.9791 12.1248 71.5356 10.4738 72.6485 9.28188C73.7614 8.07383 75.1367 7.4698 76.7743 7.4698C78.2211 7.4698 79.4215 7.91275 80.3754 8.79866C81.3453 9.66846 81.9097 10.804 82.0687 12.2054L79.8031 12.5678C79.6759 11.7141 79.3579 11.0134 78.8491 10.4658C78.3563 9.90201 77.6646 9.62013 76.7743 9.62013C75.7091 9.62013 74.8585 10.0228 74.2225 10.8282C73.5865 11.6336 73.2686 12.7691 73.2686 14.2349C73.2686 15.7007 73.5786 16.8443 74.1987 17.6658C74.8346 18.4711 75.7011 18.8738 76.7982 18.8738C77.6885 18.8738 78.3801 18.5678 78.873 17.9557C79.3658 17.3436 79.6838 16.5705 79.8269 15.6362Z" fill="#040506"/>
<path d="M85.5442 16.6268V9.88591H83.684V7.83221H85.5919V4.69127H87.8098V7.83221H90.9579V9.88591H87.8337V16.3852C87.8337 17.1101 87.937 17.6255 88.1437 17.9315C88.3663 18.2215 88.8035 18.3664 89.4554 18.3664H90.4093V20.6376H89.2885C87.9211 20.6376 86.9513 20.3074 86.3789 19.647C85.8225 18.9866 85.5442 17.9799 85.5442 16.6268Z" fill="#040506"/>
<path d="M93.9179 20.6376V7.83221H96.2312V20.6376H93.9179ZM93.8225 5.48859V3H96.3266V5.48859H93.8225Z" fill="#040506"/>
<path d="M108.147 15.6362L110.46 16.2161C110.238 17.698 109.657 18.8658 108.719 19.7195C107.781 20.5732 106.565 21 105.071 21C103.369 21 101.978 20.396 100.897 19.1879C99.8319 17.9799 99.2993 16.3289 99.2993 14.2349C99.2993 12.1248 99.8557 10.4738 100.969 9.28188C102.082 8.07383 103.457 7.4698 105.094 7.4698C106.541 7.4698 107.742 7.91275 108.696 8.79866C109.665 9.66846 110.23 10.804 110.389 12.2054L108.123 12.5678C107.996 11.7141 107.678 11.0134 107.169 10.4658C106.676 9.90201 105.985 9.62013 105.094 9.62013C104.029 9.62013 103.179 10.0228 102.543 10.8282C101.907 11.6336 101.589 12.7691 101.589 14.2349C101.589 15.7007 101.899 16.8443 102.519 17.6658C103.155 18.4711 104.021 18.8738 105.118 18.8738C106.009 18.8738 106.7 18.5678 107.193 17.9557C107.686 17.3436 108.004 16.5705 108.147 15.6362Z" fill="#040506"/>
<path d="M121.901 16.5544L123.642 17.8832C123.149 18.7852 122.466 19.5342 121.591 20.1302C120.717 20.7101 119.652 21 118.396 21C116.647 21 115.224 20.3879 114.127 19.1638C113.03 17.9235 112.481 16.2805 112.481 14.2349C112.481 12.1893 113.022 10.5544 114.103 9.3302C115.2 8.08993 116.591 7.4698 118.276 7.4698C119.962 7.4698 121.337 8.08188 122.402 9.30604C123.467 10.5141 124 12.157 124 14.2349V14.9356H114.842C114.874 16.0792 115.184 17.0295 115.772 17.7866C116.376 18.5275 117.235 18.898 118.348 18.898C118.873 18.898 119.334 18.8255 119.731 18.6805C120.144 18.5356 120.494 18.3181 120.78 18.0282C121.083 17.7221 121.297 17.4805 121.424 17.3034C121.552 17.1262 121.711 16.8765 121.901 16.5544ZM114.866 13.0993H121.687C121.639 12.1168 121.337 11.2872 120.78 10.6107C120.224 9.91812 119.389 9.57181 118.276 9.57181C117.211 9.57181 116.384 9.94228 115.796 10.6832C115.208 11.4081 114.898 12.2134 114.866 13.0993Z" fill="#040506"/>
<defs>
<clipPath id="clip0_181_1434">
<rect width="24" height="24" fill="white"/>
</clipPath>
</defs>
</svg>
