<svg width="297" height="51" viewBox="0 0 297 51" fill="none" xmlns="http://www.w3.org/2000/svg">
<g clip-path="url(#clip0_418_22850)">
<rect width="50" height="50" rx="8" fill="url(#paint0_linear_418_22850)"/>
<path d="M41 21.3041C41 23.6516 40.089 25.9031 38.467 27.5642C36.845 29.2253 34.6446 30.1601 32.3492 30.1633H28.0089C28.0089 30.1633 15 28.8664 15 42V21.3041C15 17.7756 16.3706 14.3917 18.8102 11.8967C21.2499 9.40168 24.5588 8 28.0089 8C31.4565 8.00323 34.7617 9.40654 37.1978 11.9014C39.634 14.3962 41.0016 17.7783 41 21.3041ZM27.9018 31.375C27.9018 31.375 27.5922 31.3446 27.0742 31.3446C23.8056 31.3446 16.2027 32.3797 16.2027 42H16.4408C19.305 42.0018 22.068 40.917 24.1951 38.9553C26.3221 36.9937 27.662 34.2948 27.9553 31.3811L27.9018 31.375Z" fill="white"/>
<path d="M64.26 50.2V5.14H73.44L73.86 12.16L72 11.62C72.24 10.34 72.9 9.18 73.98 8.14C75.1 7.06 76.48 6.2 78.12 5.56C79.76 4.88 81.5 4.54 83.34 4.54C86.06 4.54 88.48 5.24 90.6 6.64C92.72 8.04 94.38 10 95.58 12.52C96.82 15 97.44 17.86 97.44 21.1C97.44 24.26 96.82 27.08 95.58 29.56C94.38 32.04 92.7 34 90.54 35.44C88.42 36.84 86 37.54 83.28 37.54C81.44 37.54 79.7 37.2 78.06 36.52C76.42 35.8 75.04 34.88 73.92 33.76C72.8 32.64 72.08 31.42 71.76 30.1L73.98 29.2V50.2H64.26ZM80.94 29.38C82.38 29.38 83.62 29.04 84.66 28.36C85.74 27.68 86.56 26.72 87.12 25.48C87.72 24.2 88.02 22.74 88.02 21.1C88.02 19.42 87.72 17.96 87.12 16.72C86.56 15.44 85.74 14.46 84.66 13.78C83.62 13.06 82.38 12.7 80.94 12.7C79.46 12.7 78.18 13.06 77.1 13.78C76.02 14.46 75.18 15.42 74.58 16.66C73.98 17.9 73.68 19.38 73.68 21.1C73.68 22.74 73.98 24.2 74.58 25.48C75.18 26.72 76.02 27.68 77.1 28.36C78.18 29.04 79.46 29.38 80.94 29.38ZM118.932 37.6C115.412 37.6 112.332 36.9 109.692 35.5C107.092 34.1 105.072 32.18 103.632 29.74C102.232 27.26 101.532 24.44 101.532 21.28C101.532 18.8 101.932 16.54 102.732 14.5C103.532 12.42 104.652 10.64 106.092 9.16C107.572 7.68 109.292 6.54 111.252 5.74C113.252 4.9 115.432 4.48 117.792 4.48C120.032 4.48 122.072 4.88 123.912 5.68C125.752 6.48 127.352 7.6 128.712 9.04C130.072 10.48 131.112 12.18 131.832 14.14C132.552 16.1 132.892 18.24 132.852 20.56L132.792 23.2H107.472L106.032 17.74H124.932L123.912 18.82V17.62C123.832 16.62 123.512 15.76 122.952 15.04C122.432 14.28 121.732 13.68 120.852 13.24C120.012 12.8 119.052 12.58 117.972 12.58C116.372 12.58 115.012 12.9 113.892 13.54C112.812 14.14 111.992 15.02 111.432 16.18C110.872 17.34 110.592 18.78 110.592 20.5C110.592 22.22 110.952 23.74 111.672 25.06C112.432 26.38 113.512 27.4 114.912 28.12C116.352 28.84 118.052 29.2 120.012 29.2C121.332 29.2 122.532 29 123.612 28.6C124.692 28.2 125.852 27.52 127.092 26.56L131.592 32.92C130.352 33.96 129.032 34.84 127.632 35.56C126.232 36.24 124.792 36.74 123.312 37.06C121.872 37.42 120.412 37.6 118.932 37.6ZM138.967 37V5.14H148.147L148.567 15.52L146.767 13.48C147.287 11.8 148.087 10.28 149.167 8.92C150.247 7.56 151.527 6.48 153.007 5.68C154.527 4.88 156.107 4.48 157.747 4.48C158.467 4.48 159.127 4.54 159.727 4.66C160.367 4.74 160.927 4.88 161.407 5.08L158.827 15.7C158.387 15.46 157.787 15.26 157.027 15.1C156.307 14.9 155.547 14.8 154.747 14.8C153.867 14.8 153.047 14.96 152.287 15.28C151.567 15.56 150.927 15.98 150.367 16.54C149.847 17.1 149.427 17.76 149.107 18.52C148.827 19.28 148.687 20.14 148.687 21.1V37H138.967ZM177.07 37.6C174.03 37.6 171.31 37.12 168.91 36.16C166.51 35.16 164.59 33.8 163.15 32.08L169.03 27.04C170.27 28.28 171.67 29.2 173.23 29.8C174.79 30.36 176.27 30.64 177.67 30.64C178.19 30.64 178.65 30.58 179.05 30.46C179.45 30.34 179.79 30.18 180.07 29.98C180.39 29.74 180.63 29.48 180.79 29.2C180.95 28.88 181.03 28.52 181.03 28.12C181.03 27.32 180.69 26.72 180.01 26.32C179.69 26.12 179.11 25.88 178.27 25.6C177.43 25.28 176.35 24.96 175.03 24.64C173.15 24.16 171.51 23.58 170.11 22.9C168.75 22.22 167.63 21.44 166.75 20.56C165.95 19.76 165.33 18.84 164.89 17.8C164.49 16.76 164.29 15.6 164.29 14.32C164.29 12.36 164.87 10.64 166.03 9.16C167.23 7.68 168.79 6.54 170.71 5.74C172.63 4.9 174.71 4.48 176.95 4.48C178.71 4.48 180.37 4.68 181.93 5.08C183.53 5.48 185.01 6.04 186.37 6.76C187.77 7.48 189.01 8.34 190.09 9.34L184.99 15.04C184.31 14.36 183.51 13.76 182.59 13.24C181.67 12.68 180.75 12.24 179.83 11.92C178.91 11.56 178.05 11.38 177.25 11.38C176.65 11.38 176.11 11.44 175.63 11.56C175.19 11.64 174.81 11.8 174.49 12.04C174.21 12.24 173.99 12.5 173.83 12.82C173.67 13.1 173.59 13.42 173.59 13.78C173.59 14.22 173.69 14.62 173.89 14.98C174.13 15.3 174.45 15.6 174.85 15.88C175.21 16.08 175.83 16.34 176.71 16.66C177.63 16.98 178.83 17.34 180.31 17.74C182.19 18.26 183.79 18.86 185.11 19.54C186.47 20.18 187.55 20.94 188.35 21.82C189.03 22.5 189.51 23.3 189.79 24.22C190.11 25.1 190.27 26.06 190.27 27.1C190.27 29.14 189.69 30.96 188.53 32.56C187.41 34.12 185.85 35.36 183.85 36.28C181.89 37.16 179.63 37.6 177.07 37.6ZM206.897 37.6C204.577 37.6 202.577 37.1 200.897 36.1C199.217 35.06 197.917 33.6 196.997 31.72C196.117 29.8 195.677 27.5 195.677 24.82V5.14H205.337V23.38C205.337 25.34 205.797 26.88 206.717 28C207.677 29.08 208.997 29.62 210.677 29.62C211.517 29.62 212.277 29.5 212.957 29.26C213.637 28.98 214.217 28.6 214.697 28.12C215.217 27.6 215.617 27 215.897 26.32C216.177 25.64 216.317 24.9 216.317 24.1V5.14H225.977V37H216.917L216.557 30.46L218.297 29.74C217.857 31.22 217.057 32.56 215.897 33.76C214.777 34.96 213.437 35.9 211.877 36.58C210.317 37.26 208.657 37.6 206.897 37.6ZM244.432 37L231.112 5.14H241.732L249.652 28.72L247.312 29.02L255.472 5.14H266.032L251.992 37H244.432ZM287.138 37V17.44C287.138 15.8 286.678 14.6 285.758 13.84C284.878 13.04 283.638 12.64 282.038 12.64C280.478 12.64 279.078 12.94 277.838 13.54C276.638 14.1 275.478 15.04 274.358 16.36L268.598 10.78C270.518 8.82 272.718 7.28 275.198 6.16C277.678 5.04 280.378 4.48 283.298 4.48C285.978 4.48 288.298 4.88 290.258 5.68C292.218 6.48 293.738 7.7 294.818 9.34C295.898 10.98 296.438 13.06 296.438 15.58V37H287.138ZM278.858 37.6C276.858 37.6 275.038 37.2 273.398 36.4C271.798 35.6 270.518 34.5 269.558 33.1C268.638 31.66 268.178 29.98 268.178 28.06C268.178 26.42 268.478 24.98 269.078 23.74C269.678 22.5 270.558 21.48 271.718 20.68C272.918 19.84 274.398 19.22 276.158 18.82C277.958 18.38 280.038 18.16 282.398 18.16H292.058L291.518 24.22H282.638C281.798 24.22 281.058 24.3 280.418 24.46C279.778 24.58 279.238 24.8 278.798 25.12C278.358 25.4 278.018 25.74 277.778 26.14C277.578 26.54 277.478 27.02 277.478 27.58C277.478 28.18 277.638 28.7 277.958 29.14C278.278 29.58 278.698 29.92 279.218 30.16C279.778 30.4 280.418 30.52 281.138 30.52C282.178 30.52 283.158 30.36 284.078 30.04C285.038 29.68 285.878 29.18 286.598 28.54C287.358 27.9 287.958 27.16 288.398 26.32L290.078 30.64C289.238 32 288.218 33.2 287.018 34.24C285.858 35.28 284.578 36.1 283.178 36.7C281.818 37.3 280.378 37.6 278.858 37.6Z" fill="#090F1D"/>
</g>
<defs>
<linearGradient id="paint0_linear_418_22850" x1="6.32565e-07" y1="49.7725" x2="57.2189" y2="39.3308" gradientUnits="userSpaceOnUse">
<stop stop-color="#FDA000"/>
<stop offset="1" stop-color="#E64D14"/>
</linearGradient>
<clipPath id="clip0_418_22850">
<rect width="297" height="51" fill="white"/>
</clipPath>
</defs>
</svg>
